<?xml version="1.0"?>
<svg xmlns="http://www.w3.org/2000/svg" xmlns:xlink="http://www.w3.org/1999/xlink" version="1.1" viewBox="0 0 192 192" width="32px" height="32px"><g fill="none" fill-rule="nonzero" stroke="none" stroke-width="1" stroke-linecap="butt" stroke-linejoin="miter" stroke-miterlimit="10" stroke-dasharray="" stroke-dashoffset="0" font-family="none" font-weight="none" font-size="none" text-anchor="none" style="mix-blend-mode: normal"><path d="M0,192v-192h192v192z" fill="none"/><g fill="#ffffff"><g id="surface1"><path d="M68.8125,30c-21.30469,0 -38.8125,17.48438 -38.8125,38.8125v54.375c0,21.30469 17.48438,38.8125 38.8125,38.8125h54.375c21.30469,0 38.8125,-17.48437 38.8125,-38.8125v-54.375c0,-21.30469 -17.48437,-38.8125 -38.8125,-38.8125zM68.8125,42h54.375c14.83594,0 26.8125,11.97656 26.8125,26.8125v54.375c0,14.83594 -11.97656,26.8125 -26.8125,26.8125h-54.375c-14.83594,0 -26.8125,-11.97656 -26.8125,-26.8125v-54.375c0,-14.83594 11.97656,-26.8125 26.8125,-26.8125zM131.4375,55.125c-3.02344,0 -5.4375,2.41406 -5.4375,5.4375c0,3.02344 2.41406,5.4375 5.4375,5.4375c3.02344,0 5.4375,-2.41406 5.4375,-5.4375c0,-3.02344 -2.41406,-5.4375 -5.4375,-5.4375zM96,60c-19.80469,0 -36,16.19531 -36,36c0,19.80469 16.19531,36 36,36c19.80469,0 36,-16.19531 36,-36c0,-19.80469 -16.19531,-36 -36,-36zM96,72c13.33594,0 24,10.66406 24,24c0,13.33594 -10.66406,24 -24,24c-13.33594,0 -24,-10.66406 -24,-24c0,-13.33594 10.66406,-24 24,-24z"/></g></g></g></svg>
