<?xml version="1.0"?>
<svg xmlns="http://www.w3.org/2000/svg" xmlns:xlink="http://www.w3.org/1999/xlink" version="1.1" viewBox="0 0 192 192" width="26px" height="26px"><g fill="none" fill-rule="nonzero" stroke="none" stroke-width="1" stroke-linecap="butt" stroke-linejoin="miter" stroke-miterlimit="10" stroke-dasharray="" stroke-dashoffset="0" font-family="none" font-weight="none" font-size="none" text-anchor="none" style="mix-blend-mode: normal"><path d="M0,192v-192h192v192z" fill="none"/><g fill="#ffffff"><g id="surface1"><path d="M190.93269,41.16346c-6.95192,3.08654 -14.42308,5.16346 -22.26923,6.11538c7.99038,-4.81731 14.16346,-12.40385 17.04808,-21.46154c-7.5,4.4423 -15.80769,7.67307 -24.63462,9.40384c-7.06731,-7.52884 -17.13461,-12.23077 -28.29808,-12.23077c-21.40385,0 -38.76923,17.36539 -38.76923,38.76923c0,3.02885 0.34615,6 1.00962,8.82693c-32.22116,-1.61538 -60.77885,-17.07692 -79.90385,-40.52884c-3.34615,5.74038 -5.25,12.40384 -5.25,19.52884c0,13.4423 6.83654,25.29808 17.25,32.25c-6.375,-0.20192 -12.34615,-1.93269 -17.56731,-4.84615c0,0.17308 0,0.31731 0,0.49039c0,18.77884 13.35577,34.4423 31.09615,38.01923c-3.25961,0.89423 -6.66346,1.35577 -10.21153,1.35577c-2.50962,0 -4.93269,-0.23077 -7.29808,-0.69231c4.93269,15.375 19.24038,26.625 36.20192,26.91346c-13.24038,10.41346 -29.97115,16.58654 -48.14423,16.58654c-3.14423,0 -6.20192,-0.17308 -9.23077,-0.51923c17.13462,10.99039 37.52884,17.39423 59.42308,17.39423c71.30769,0 110.30769,-59.07692 110.30769,-110.27885c0,-1.70192 -0.02884,-3.375 -0.11538,-5.04807c7.58654,-5.42308 14.16346,-12.25962 19.35577,-20.04808"/></g></g></g></svg>
