<?xml version="1.0"?>
<svg xmlns="http://www.w3.org/2000/svg" xmlns:xlink="http://www.w3.org/1999/xlink" version="1.1" viewBox="0 0 192 192" width="24px" height="24px"><g fill="none" fill-rule="nonzero" stroke="none" stroke-width="1" stroke-linecap="butt" stroke-linejoin="miter" stroke-miterlimit="10" stroke-dasharray="" stroke-dashoffset="0" font-family="none" font-weight="none" font-size="none" text-anchor="none" style="mix-blend-mode: normal"><path d="M0,192v-192h192v192z" fill="none"/><g fill="#ffffff"><path d="M172.656,49.488c-1.84,-6.88 -7.264,-12.304 -14.144,-14.144c-12.48,-3.344 -62.512,-3.344 -62.512,-3.344c0,0 -50.032,0 -62.512,3.344c-6.88,1.84 -12.304,7.264 -14.144,14.144c-3.344,12.48 -3.344,46.512 -3.344,46.512c0,0 0,34.032 3.344,46.512c1.84,6.88 7.264,12.304 14.144,14.144c12.48,3.344 62.512,3.344 62.512,3.344c0,0 50.032,0 62.512,-3.344c6.888,-1.84 12.304,-7.264 14.144,-14.144c3.344,-12.48 3.344,-46.512 3.344,-46.512c0,0 0,-34.032 -3.344,-46.512zM80,123.712v-55.424l48,27.712z"/></g></g></svg>
